# xmcd
#
# Track frame offsets:
#   150
#   12590
#   26864
#   41955
#   60097
#   77807
#   96905
#   106669
#   118335
#   134032
#   147161
#   162570
#   180242
#   201792
#   226937
#   242302
#   261123
#   293056
#   305979
#
# Disc length: 4297 seconds
#
# Revision: 0
# Processed by: cddbd v1.5.1PL0 Copyright (c) Steve Scherf et al.
# Submitted via: uFREEDB 1.6.0
#
DISCID=0f10c713
DTITLE=Michelle Shocked - Arkansas Traveler
DYEAR=1992
DGENRE=Country
TTITLE0=33 RPM Soul
TTITLE1=Come a long way
TTITLE2=Secret To A Long Life
TTITLE3=Contest Coming (Cripple Creek)
TTITLE4=Over The Waterfall
TTITLE5=Shaking Hands (Soldier's Joy)
TTITLE6=Jump Jim Crow
TTITLE7=Hold Me Back
TTITLE8=Strawberry Jam
TTITLE9=Prodigal Daughter (Cotton Eyed Joe)
TTITLE10=Blackberry Blossom
TTITLE11=Weaving Day
TTITLE12=Arkansas Traveler
TTITLE13=Woody's Rag
TTITLE14=
TTITLE15=
TTITLE16=
TTITLE17=
TTITLE18=
EXTD=
EXTT0=
EXTT1=
EXTT2=
EXTT3=
EXTT4=
EXTT5=
EXTT6=
EXTT7=
EXTT8=
EXTT9=
EXTT10=
EXTT11=
EXTT12=
EXTT13=
EXTT14=
EXTT15=
EXTT16=
EXTT17=
EXTT18=
PLAYORDER=
